<mxfile host="app.diagrams.net" modified="2024-07-23T05:56:59.019Z" agent="Mozilla/5.0 (Macintosh; Intel Mac OS X 10_15_7) AppleWebKit/537.36 (KHTML, like Gecko) Chrome/126.0.0.0 Safari/537.36" version="24.7.3" etag="UTIXzT7-kG-_u0vx12TR" type="github">
  <diagram name="第 1 页" id="WXUAx7ZmIQ2vs99p7-YZ">
    <mxGraphModel>
      <root>
        <mxCell id="0" />
        <mxCell id="1" parent="0" />
      </root>
    </mxGraphModel>
  </diagram>
</mxfile>
